<mxfile host="app.diagrams.net" modified="2023-05-25T23:42:52.558Z" agent="Mozilla/5.0 (Windows NT 10.0; Win64; x64) AppleWebKit/537.36 (KHTML, like Gecko) Chrome/113.0.0.0 Safari/537.36" etag="GX9RQ6dsh2BrkCJ43QJ8" version="21.3.4" type="github">
  <diagram name="Page-1" id="c7488fd3-1785-93aa-aadb-54a6760d102a">
    <mxGraphModel dx="875" dy="484" grid="1" gridSize="10" guides="1" tooltips="1" connect="1" arrows="1" fold="1" page="1" pageScale="1" pageWidth="1100" pageHeight="850" background="none" math="0" shadow="0">
      <root>
        <mxCell id="0" />
        <mxCell id="1" parent="0" />
        <mxCell id="2b4e8129b02d487f-1" value="Cadastrar Produto" style="swimlane;html=1;childLayout=stackLayout;horizontal=1;startSize=20;horizontalStack=0;rounded=0;shadow=0;labelBackgroundColor=none;strokeWidth=1;fontFamily=Verdana;fontSize=8;align=center;" parent="1" vertex="1">
          <mxGeometry x="180" y="233" width="590" height="160" as="geometry" />
        </mxCell>
        <mxCell id="2b4e8129b02d487f-2" value="Fabricante" style="swimlane;html=1;startSize=20;horizontal=0;" parent="2b4e8129b02d487f-1" vertex="1">
          <mxGeometry y="20" width="590" height="140" as="geometry" />
        </mxCell>
        <mxCell id="2b4e8129b02d487f-18" style="edgeStyle=orthogonalEdgeStyle;rounded=0;html=1;labelBackgroundColor=none;startArrow=none;startFill=0;startSize=5;endArrow=classicThin;endFill=1;endSize=5;jettySize=auto;orthogonalLoop=1;strokeWidth=1;fontFamily=Verdana;fontSize=8" parent="2b4e8129b02d487f-2" source="2b4e8129b02d487f-5" target="2b4e8129b02d487f-6" edge="1">
          <mxGeometry relative="1" as="geometry" />
        </mxCell>
        <mxCell id="2b4e8129b02d487f-5" value="" style="ellipse;whiteSpace=wrap;html=1;rounded=0;shadow=0;labelBackgroundColor=none;strokeWidth=1;fontFamily=Verdana;fontSize=8;align=center;" parent="2b4e8129b02d487f-2" vertex="1">
          <mxGeometry x="60" y="60" width="30" height="30" as="geometry" />
        </mxCell>
        <mxCell id="wPB56eFG8DypEKc2nQls-16" value="" style="edgeStyle=orthogonalEdgeStyle;rounded=0;orthogonalLoop=1;jettySize=auto;html=1;" edge="1" parent="2b4e8129b02d487f-2" source="2b4e8129b02d487f-6" target="2b4e8129b02d487f-7">
          <mxGeometry relative="1" as="geometry" />
        </mxCell>
        <mxCell id="2b4e8129b02d487f-6" value="Preenche informações do produto" style="rounded=1;whiteSpace=wrap;html=1;shadow=0;labelBackgroundColor=none;strokeWidth=1;fontFamily=Verdana;fontSize=8;align=center;" parent="2b4e8129b02d487f-2" vertex="1">
          <mxGeometry x="120" y="56.49999999999997" width="70" height="37" as="geometry" />
        </mxCell>
        <mxCell id="wPB56eFG8DypEKc2nQls-33" value="" style="edgeStyle=orthogonalEdgeStyle;rounded=0;orthogonalLoop=1;jettySize=auto;html=1;" edge="1" parent="2b4e8129b02d487f-2" source="2b4e8129b02d487f-7" target="wPB56eFG8DypEKc2nQls-32">
          <mxGeometry relative="1" as="geometry" />
        </mxCell>
        <mxCell id="2b4e8129b02d487f-7" value="Seleciona garantia" style="rounded=1;whiteSpace=wrap;html=1;shadow=0;labelBackgroundColor=none;strokeWidth=1;fontFamily=Verdana;fontSize=8;align=center;" parent="2b4e8129b02d487f-2" vertex="1">
          <mxGeometry x="230" y="58.25" width="70" height="31.75" as="geometry" />
        </mxCell>
        <mxCell id="2b4e8129b02d487f-8" value="" style="ellipse;whiteSpace=wrap;html=1;rounded=0;shadow=0;labelBackgroundColor=none;strokeWidth=2;fontFamily=Verdana;fontSize=8;align=center;" parent="2b4e8129b02d487f-2" vertex="1">
          <mxGeometry x="450" y="59.13" width="30" height="30" as="geometry" />
        </mxCell>
        <mxCell id="wPB56eFG8DypEKc2nQls-34" value="" style="edgeStyle=orthogonalEdgeStyle;rounded=0;orthogonalLoop=1;jettySize=auto;html=1;" edge="1" parent="2b4e8129b02d487f-2" source="wPB56eFG8DypEKc2nQls-32" target="2b4e8129b02d487f-8">
          <mxGeometry relative="1" as="geometry" />
        </mxCell>
        <mxCell id="wPB56eFG8DypEKc2nQls-32" value="Assina transação" style="whiteSpace=wrap;html=1;fontSize=8;fontFamily=Verdana;rounded=1;shadow=0;labelBackgroundColor=none;strokeWidth=1;" vertex="1" parent="2b4e8129b02d487f-2">
          <mxGeometry x="350" y="56.5" width="70" height="35" as="geometry" />
        </mxCell>
        <mxCell id="wPB56eFG8DypEKc2nQls-3" value="Cadastrar Lote" style="swimlane;html=1;childLayout=stackLayout;horizontal=1;startSize=20;horizontalStack=0;rounded=0;shadow=0;labelBackgroundColor=none;strokeWidth=1;fontFamily=Verdana;fontSize=8;align=center;" vertex="1" parent="1">
          <mxGeometry x="180" y="450" width="590" height="172" as="geometry" />
        </mxCell>
        <mxCell id="wPB56eFG8DypEKc2nQls-4" value="Fabricante" style="swimlane;html=1;startSize=20;horizontal=0;" vertex="1" parent="wPB56eFG8DypEKc2nQls-3">
          <mxGeometry y="20" width="590" height="150" as="geometry" />
        </mxCell>
        <mxCell id="wPB56eFG8DypEKc2nQls-5" style="edgeStyle=orthogonalEdgeStyle;rounded=0;html=1;labelBackgroundColor=none;startArrow=none;startFill=0;startSize=5;endArrow=classicThin;endFill=1;endSize=5;jettySize=auto;orthogonalLoop=1;strokeWidth=1;fontFamily=Verdana;fontSize=8" edge="1" parent="wPB56eFG8DypEKc2nQls-4" source="wPB56eFG8DypEKc2nQls-6" target="wPB56eFG8DypEKc2nQls-7">
          <mxGeometry relative="1" as="geometry" />
        </mxCell>
        <mxCell id="wPB56eFG8DypEKc2nQls-6" value="" style="ellipse;whiteSpace=wrap;html=1;rounded=0;shadow=0;labelBackgroundColor=none;strokeWidth=1;fontFamily=Verdana;fontSize=8;align=center;" vertex="1" parent="wPB56eFG8DypEKc2nQls-4">
          <mxGeometry x="60" y="60" width="30" height="30" as="geometry" />
        </mxCell>
        <mxCell id="wPB56eFG8DypEKc2nQls-17" value="" style="edgeStyle=orthogonalEdgeStyle;rounded=0;orthogonalLoop=1;jettySize=auto;html=1;" edge="1" parent="wPB56eFG8DypEKc2nQls-4" source="wPB56eFG8DypEKc2nQls-7" target="wPB56eFG8DypEKc2nQls-9">
          <mxGeometry relative="1" as="geometry" />
        </mxCell>
        <mxCell id="wPB56eFG8DypEKc2nQls-7" value="Seleciona produto" style="rounded=1;whiteSpace=wrap;html=1;shadow=0;labelBackgroundColor=none;strokeWidth=1;fontFamily=Verdana;fontSize=8;align=center;" vertex="1" parent="wPB56eFG8DypEKc2nQls-4">
          <mxGeometry x="120" y="56.49999999999997" width="70" height="37" as="geometry" />
        </mxCell>
        <mxCell id="wPB56eFG8DypEKc2nQls-9" value="Preenche informações do lote" style="rounded=1;whiteSpace=wrap;html=1;shadow=0;labelBackgroundColor=none;strokeWidth=1;fontFamily=Verdana;fontSize=8;align=center;" vertex="1" parent="wPB56eFG8DypEKc2nQls-4">
          <mxGeometry x="230" y="56.49999999999997" width="70" height="37" as="geometry" />
        </mxCell>
        <mxCell id="wPB56eFG8DypEKc2nQls-21" value="Assina transação" style="rounded=1;whiteSpace=wrap;html=1;shadow=0;labelBackgroundColor=none;strokeWidth=1;fontFamily=Verdana;fontSize=8;align=center;" vertex="1" parent="wPB56eFG8DypEKc2nQls-4">
          <mxGeometry x="333" y="58.25" width="80" height="33.5" as="geometry" />
        </mxCell>
        <mxCell id="wPB56eFG8DypEKc2nQls-8" style="edgeStyle=orthogonalEdgeStyle;rounded=0;html=1;labelBackgroundColor=none;startArrow=none;startFill=0;startSize=5;endArrow=classicThin;endFill=1;endSize=5;jettySize=auto;orthogonalLoop=1;strokeWidth=1;fontFamily=Verdana;fontSize=8" edge="1" parent="wPB56eFG8DypEKc2nQls-4" source="wPB56eFG8DypEKc2nQls-9" target="wPB56eFG8DypEKc2nQls-21">
          <mxGeometry relative="1" as="geometry">
            <mxPoint x="330" y="75" as="targetPoint" />
          </mxGeometry>
        </mxCell>
        <mxCell id="wPB56eFG8DypEKc2nQls-22" value="" style="ellipse;whiteSpace=wrap;html=1;rounded=0;shadow=0;labelBackgroundColor=none;strokeWidth=2;fontFamily=Verdana;fontSize=8;align=center;" vertex="1" parent="wPB56eFG8DypEKc2nQls-4">
          <mxGeometry x="463" y="60" width="30" height="30" as="geometry" />
        </mxCell>
        <mxCell id="wPB56eFG8DypEKc2nQls-20" style="edgeStyle=orthogonalEdgeStyle;rounded=0;html=1;labelBackgroundColor=none;startArrow=none;startFill=0;startSize=5;endArrow=classicThin;endFill=1;endSize=5;jettySize=auto;orthogonalLoop=1;strokeWidth=1;fontFamily=Verdana;fontSize=8" edge="1" parent="wPB56eFG8DypEKc2nQls-4" source="wPB56eFG8DypEKc2nQls-21" target="wPB56eFG8DypEKc2nQls-22">
          <mxGeometry relative="1" as="geometry" />
        </mxCell>
        <mxCell id="wPB56eFG8DypEKc2nQls-23" value="Cadastrar Garantia" style="swimlane;html=1;childLayout=stackLayout;horizontal=1;startSize=20;horizontalStack=0;rounded=0;shadow=0;labelBackgroundColor=none;strokeWidth=1;fontFamily=Verdana;fontSize=8;align=center;" vertex="1" parent="1">
          <mxGeometry x="180" y="8" width="590" height="160" as="geometry" />
        </mxCell>
        <mxCell id="wPB56eFG8DypEKc2nQls-24" value="Fabricante" style="swimlane;html=1;startSize=20;horizontal=0;" vertex="1" parent="wPB56eFG8DypEKc2nQls-23">
          <mxGeometry y="20" width="590" height="140" as="geometry" />
        </mxCell>
        <mxCell id="wPB56eFG8DypEKc2nQls-25" style="edgeStyle=orthogonalEdgeStyle;rounded=0;html=1;labelBackgroundColor=none;startArrow=none;startFill=0;startSize=5;endArrow=classicThin;endFill=1;endSize=5;jettySize=auto;orthogonalLoop=1;strokeWidth=1;fontFamily=Verdana;fontSize=8" edge="1" parent="wPB56eFG8DypEKc2nQls-24" source="wPB56eFG8DypEKc2nQls-26" target="wPB56eFG8DypEKc2nQls-28">
          <mxGeometry relative="1" as="geometry" />
        </mxCell>
        <mxCell id="wPB56eFG8DypEKc2nQls-26" value="" style="ellipse;whiteSpace=wrap;html=1;rounded=0;shadow=0;labelBackgroundColor=none;strokeWidth=1;fontFamily=Verdana;fontSize=8;align=center;" vertex="1" parent="wPB56eFG8DypEKc2nQls-24">
          <mxGeometry x="60" y="60" width="30" height="30" as="geometry" />
        </mxCell>
        <mxCell id="wPB56eFG8DypEKc2nQls-27" value="" style="edgeStyle=orthogonalEdgeStyle;rounded=0;orthogonalLoop=1;jettySize=auto;html=1;" edge="1" parent="wPB56eFG8DypEKc2nQls-24" source="wPB56eFG8DypEKc2nQls-28" target="wPB56eFG8DypEKc2nQls-30">
          <mxGeometry relative="1" as="geometry" />
        </mxCell>
        <mxCell id="wPB56eFG8DypEKc2nQls-28" value="Preenche informações da garantia" style="rounded=1;whiteSpace=wrap;html=1;shadow=0;labelBackgroundColor=none;strokeWidth=1;fontFamily=Verdana;fontSize=8;align=center;" vertex="1" parent="wPB56eFG8DypEKc2nQls-24">
          <mxGeometry x="120" y="56.49999999999997" width="70" height="37" as="geometry" />
        </mxCell>
        <mxCell id="wPB56eFG8DypEKc2nQls-29" style="edgeStyle=orthogonalEdgeStyle;rounded=0;html=1;labelBackgroundColor=none;startArrow=none;startFill=0;startSize=5;endArrow=classicThin;endFill=1;endSize=5;jettySize=auto;orthogonalLoop=1;strokeWidth=1;fontFamily=Verdana;fontSize=8" edge="1" parent="wPB56eFG8DypEKc2nQls-24" source="wPB56eFG8DypEKc2nQls-30" target="wPB56eFG8DypEKc2nQls-31">
          <mxGeometry relative="1" as="geometry" />
        </mxCell>
        <mxCell id="wPB56eFG8DypEKc2nQls-30" value="Assina transação" style="rounded=1;whiteSpace=wrap;html=1;shadow=0;labelBackgroundColor=none;strokeWidth=1;fontFamily=Verdana;fontSize=8;align=center;" vertex="1" parent="wPB56eFG8DypEKc2nQls-24">
          <mxGeometry x="230" y="58.25" width="80" height="33.5" as="geometry" />
        </mxCell>
        <mxCell id="wPB56eFG8DypEKc2nQls-31" value="" style="ellipse;whiteSpace=wrap;html=1;rounded=0;shadow=0;labelBackgroundColor=none;strokeWidth=2;fontFamily=Verdana;fontSize=8;align=center;" vertex="1" parent="wPB56eFG8DypEKc2nQls-24">
          <mxGeometry x="360" y="60" width="30" height="30" as="geometry" />
        </mxCell>
      </root>
    </mxGraphModel>
  </diagram>
</mxfile>
